<svg width="274" height="181" viewBox="0 0 274 181" xmlns="http://www.w3.org/2000/svg" xmlns:xlink="http://www.w3.org/1999/xlink"><title>Page 1</title><defs><path id="a" d="M0 .4h10.2V.2H0v.2z"/><path id="c" d="M46 .4H.3V.2h46v.2z"/><path id="e" d="M6.6 0v51H.2V0h6.4z"/><path id="g" d="M.4.4h4.4V.2H.4v.2z"/><path id="i" d="M.4.3h27v15.3H.5V.3z"/></defs><g fill="none" fill-rule="evenodd"><path d="M187 20c2.4.7 4.5 2.3 4.5 4.2 0 2.6-2.8 4.7-5.4 6-1.4-.5-3.2-.7-4.2-.7h-.2c2-3.2 3.8-6.3 5.4-9.5M16 152.4v.7c0 2.5-1.7 4.6-3.4 7.2-.8-3-2-6.2-3.2-9.2-1-2.4-2-5-2.6-8.3h.6c2.8 0 5.5 3.4 7.6 7 .5.8 1 1.8 1 2.7" fill="#010101"/><path d="M190 15.7H189v-.2l1.3.2" fill="#F7F7F7"/><path d="M100.8 151.5l2 5.3c-3 4.2-7.2 7.2-12 7.2-7.7 0-12-5.5-17.5-5.5-7.5 0-15.2 8-31 8l-2.4-.2c-2.3-.3-4.5-.7-6.5-1.4 1.4-1.2 3-2 5.2-3 1.5.2 3 .3 4.7.3 12.4 0 25-8 29.7-8 5.5 0 10.5 5.3 16.2 5.3 5 0 8.8-3.7 11.6-8" fill="#BDC6FA"/><path d="M101.2 83.6c-5 0-9.8 1-14 2.7-1.3-1.2-2.2-3-2.5-4.8l-5.8-45c-.4-2 .3-4.3 1.8-6 1.4-1.7 3.6-2.7 5.8-2.7h30.2c4 0 7.2 3 7.7 6.8l2 15.4c-.8-.2-1.6-.3-2.5-.3-3 0-6.2 1.8-6.2 5.3 0 3.7 3.3 5.6 6.7 6.8l3.7 1 2 16.7c.4 2.2-.3 4.5-1.8 6.2-1.4 1.7-3.6 2.6-5.8 2.6h-.6c-6-3.2-13-4.7-20.8-4.7" fill="#010101"/><path d="M65.8 141l1 6.2c-2.6.4-3.8 1.8-8 4.5.5-2.3 1.4-4.5 2.7-6.4 1.2-1.6 2.6-3 4.3-4.2" fill="#F7F7F7"/><path d="M107 180.4H97c-.5-.7-.7-1.6-.7-2.3-.2-3 3.3-5.2 6.8-5.4 1.2 0 2.3 0 3.4.3.3 2.2.6 4.7.7 7.4" fill="#6478DD"/><path d="M235 135.8l5.7 1.5c1.8.3 3.6.5 5.4.5h1.5c-1 4-2.2 7.8-4 11.2-1.5 3-3.3 5.8-5.3 8.3-5 6.3-11.5 11-18 15.2h-.2c-6-2.4-11-9-11-17.5v-.6c.3-7.2 5-13 9.2-18.7 1.6-2 3.2-4 4.4-6 3.8 2.6 8 4.7 12.5 6" fill="#FFBF40"/><path d="M61.5 145.3c-1.3 2-2.2 4-2.6 6.4-2 1.4-5 3-9 5.2-3.4 1.6-6.7 3-9.5 4l-.2-3.6c0-3 .3-5.7 1-8.5 6.7-1 13.7-2 20.2-3.7" fill="#010101"/><g transform="matrix(-1 0 0 1 107.168 180.2)"><mask id="b" fill="#fff"><use xlink:href="#a"/></mask><path d="M0 .2h10.2H0z" fill="#F7F7F7" mask="url(#b)"/></g><path d="M98.3 146c-4 3.4-6.8 7.2-11.4 7.8.3-2.5.4-5 .4-7.6 0-4.2-.4-8.3-1.4-12.3 3.3.5 6.4 1 9 1 .8 3.8 2 7.4 3.3 11" fill="#BDC6FA"/><path d="M82 167c-3.7.8-7.5 2.3-11.3 3.7-2.8 1-6.2 2-10.2 3v-.7c0-3.3 4.2-6.5 8.6-9 1.2-.6 2.3-1 3.5-1.2h.8c3 0 5.7 2 8.8 4M216 3.4c2.2 1.7 4 4 5.6 6.6-4 0-8.3-1.4-11.5-2.2 1.2-1.6 3.2-3.3 6-4.4" fill="#010101"/><path d="M264.6 128.8c15.7 34 7 51.4 6.7 51.8h-57l-1.8-.2h-6.7c4.6-2.4 9.5-5 14.3-8 6.7-4 13-8.8 18.2-15 2-2.6 3.8-5.4 5.4-8.4.3 0 1.3-1.3 1.6-1.3 8.8 0 12.2-13.3 19.4-19" fill="#FF7F73"/><path d="M147.6 144c-7 6.6-11.6 13.3-14.5 20.2-6.2-2.3-9.6-7.3-9.6-13.5 0-4.5 1.6-10.3 1.6-13.6 0-4.3-3-8.3-9-8.3h-1c-5.6 0-8-2.7-8-7.3 0-5 2.5-7.2 4-10.3.8-1.2 1-2.3 1-3.7 0-6.6-5-13-12.3-13-11.2 0-20.7 10.3-20.7 21.3v2c.6 5.2 1.8 10.7 2.3 15.4l-4.6-1.2c-4.2-1-8.5-2.6-12.5-4.4v-3.2c0-8 1.4-15.7 6-23 3.4-5.6 8.2-10.4 14-13.5l3-1.4c4.2-1.8 9-2.7 14-2.7 7.7 0 14.7 1.5 20.8 4.7 5.6 3 10.4 7.5 14.4 13.6-1.3 4.4-2.2 9.3-2.2 13.7 0 11 5 22 13.4 28.4" fill="#6478DD"/><path d="M224.3 15.7v0z" fill="#F7F7F7"/><path d="M78 151l4.2 2c1.3.6 2.4 1 3.3 1 .5 0 1 0 1.4-.2 4.5-.6 7.2-4.4 11.3-8l2.3 5.2s0 .3.2.5c-2.8 4.4-6.6 8-11.6 8-5.7 0-10.7-5-16-5-4.7 0-17.4 7.8-29.8 7.8-1.7 0-3.2 0-4.7-.4l1.8-1c2.8-1 6-2.4 9.5-4 4-2.2 7-4 9-5.3 4-2.7 5.2-4 7.7-4.5l2-.2c3.5 0 5.5 1.7 9.4 4M28.8 147.8v1.4c0 5-4.6 8.5-5.3 13v1.3c0 3.4 3.3 9.7 6 17H25c-1.7-6-6-9-6-15.4 0-1.4.4-2.8 1-4.3 1-1.7 2-3.2 2.6-5 1.3-2.5 0-5-.8-7.6-2.8-7-6-14.5-5.2-22.3 0-.7 0-1.3.3-2 .6 1.6 1.2 3.3 2 4.7l4 6c1.2 2.2 2.6 4.5 3.8 7 1 2 1.8 4.2 2 6.4" fill="#6478DD"/><path d="M173 42h.7c-1.5 2.6-3 5-4.2 7.6-1-.6-1.8-1.5-1.8-3 0-2.3 2.4-4.5 5.4-4.5" fill="#FF7F73"/><path d="M95 135c-2.6 0-5.7-.5-9-1l-4.7-1c-.6-4.7-1.7-10.2-2.2-15.5v-2c0-11 9.5-21 20.7-21 7.3 0 12.3 6.2 12.3 12.8 0 1.4-.2 2.5-1 3.8-1.5 3.2-4 5.5-4 10.4 0 4.6 2.4 7.3 8 7.3h1c6 0 9 4 9 8.4 0 3.4-1.6 9.2-1.6 13.7 0 6.2 3.4 11.2 9.7 13.5-1.7 4.4-2.8 8.8-3.3 13-14-6-23.5-15.5-29-26.2-1-1.7-1.7-3.4-2.4-5-1.4-3.6-2.5-7.2-3.2-11" fill="#010101"/><path d="M78.4 145.5c0 1.8 0 3.6-.3 5.4-3.8-2.3-5.8-4-9.2-4-.8 0-1.5 0-2 .2l-1-6c-.6-3.8-1.4-8.8-1.6-13.8 4 1.8 8.3 3.3 12.5 4.4 1 4.5 1.7 9 1.7 13.7" fill="#BDC6FA"/><path d="M240.6 100.7c12 10.8 20.8 18.8 26.4 33.5-3.7 7.2-13.5 14.8-22.4 14.8h-1c1.7-3.4 3-7 4-11.2 1-4.2 1.3-8.8 1.2-14v-2c-.8-7-4-14.5-8.4-21.3l.2.2" fill="#010101"/><path d="M169.2 110c6.3 9 11.8 18.6 16 28.8-5.4 6.3-12.8 10.5-22 10.5-6 0-11.2-2-15.6-5.2-8.4-6.2-13.4-17.2-13.4-28.3 0-4.4 1-9.3 2.2-13.8 1-4 2.3-7.5 3.4-10.3 1.4-3.7 2.5-6 2.5-6 0-3.5-5.8-1.8-5.8-7.6 0-1.5.7-3 2-4-1.3-1-2-2.6-2-4.4 0-3 2.2-5.5 5.4-6h1.6c0-5.2-8-1.5-8-8.8 0-3 3.5-5 6.6-5 10.3 0 13 13 15 20l5 25.3L166 114l3.2-4" fill="#FF7F73"/><path d="M181.6 29.5v.3c-.2 0-.3-.2-.4-.3h.4" fill="#F7F7F7"/><path d="M8.2 117.6c-1.4 3.7-2.5 8.4-2.5 14.6 0 4 .5 7.5 1 10.5.8 3.2 1.8 6 2.7 8.3 1 3 2.4 6 3.2 9.2-1.8 2.6-3.6 5.6-3.6 9.7 0 1.7.5 3.4 1.3 5l2.7 5.4H7.4v-.5l.3-2.8c-.2-2.8-2-5.7-4.6-5.6-.5 0-1.2.3-2 .6v-3.6c.6.3 1.2.4 1.7.4 2 0 4.2-.8 4.4-4.4.6-6.7-3.6-22-2.8-34.2 0-2 .4-4.2 1-6.3 0-.4 0-1 .3-1.5.4-1.5 1-3 1.8-4.4.3 0 .6-.3 1-.4" fill="#BDC6FA"/><path d="M102.7 156.8c1 2.7 1.8 5.8 2.6 9.6-3.2 2.8-7 4.6-11.3 4.6-5 0-8.7-2-12-4-3-2.2-5.7-4.3-8.7-4.3h-.8c-1.2.2-2.3.7-3.4 1.2-4.3 2.5-8.6 5.7-8.6 9v.7c-3.6.7-7.8 1.2-12.8 1.2-7 0-12.7-1-17-2.7V169c.4-1.6 1.5-3 3-4 2 .6 4 1 6.3 1.3h2.3c15.8 0 23.5-7.8 31-7.8 5.6 0 9.8 5.5 17.5 5.5 4.8 0 9-3 12-7.2" fill="#F7F7F7"/><path d="M126.5 50c5.3 1.6 8.6 8.3 8.6 15 0 5-1.8 8-1.8 12.7 0 5.5 2.5 10.5 6.6 14-1 2.8-2.4 6.3-3.4 10.2-4-6.2-8.8-10.7-14.4-13.7h.6c2.2 0 4.4-1 5.8-2.6 1.5-1.7 2.2-4 2-6.2L128 63c-1-.5-2.4-.8-3.7-1.2-3.4-1.2-6.7-3-6.7-6.8 0-3.5 3.3-5.3 6.2-5.3 1 0 1.7 0 2.5.3" fill="#6F4170"/><path d="M7.7 177.2c0 1 0 1.8-.3 2.7v.4H1v-8.2l2-.6c2.6 0 4.5 2.8 4.7 5.6" fill="#6478DD"/><g transform="matrix(-1 0 0 1 92.76 180.2)"><mask id="d" fill="#fff"><use xlink:href="#c"/></mask><path d="M.2.2H46 .3" fill="#F7F7F7" mask="url(#d)"/></g><path d="M87.6 173.3c4.3.3 5.6 3 5.4 5.3 0 .6-.2 1.2-.5 1.8h-46c-6.3-.2-12-2-16-6.7v-.6c2.2 1.4 4.6 2.2 7 2.8 2.6.5 5.2.8 8 1 14.8 1 33.8-4 42-3.5" fill="#6478DD"/><path d="M224.4 15.7h-24.2c-.2-.6-.3-1.4-.3-2 0-3.8 3-6.6 6.3-6.6 1 0 2.2.4 3.8.8 3.3.8 7.7 2 11.6 2.2 1 1.7 2 3.7 2.8 5.7" fill="#6F4170"/><path d="M185.2 138.8c-4.2-10.2-9.7-20-16-29 3.5-3.8 7.5-7.3 11.7-10 11.5-8 24.8-11.6 35-11.2 9.6.4 19 5.5 24.4 12 4.5 6.7 7.6 14 8.3 21.3-1.6 0-3 .2-4.4.7-1.3.5-2.6 1-3.7 2-1-8.3-8.8-15-19-15-8.2 0-16 3.4-19.7 4 1.2 2.5 1.8 5.2 1.8 8 0 6-3.6 10.4-3.6 18 0 6.7 3.6 11.5 8.8 14.7v.6c0 8.5 5 15 11 17.4-4.7 3-9.6 5.6-14.2 8h-76.4l.3-3c.5-4.4 1.6-8.8 3.4-13.2 3-7 7.7-13.6 14.6-20 4.4 3 9.7 5 15.7 5 9 0 16.5-4 22-10.4M46.6 180.4h-17c-2.8-7.2-6.2-13.5-6.2-17v-1c2.6-3.7 6.3-6.4 8.7-10.3.5-.6.8-1.4 1-2.2 2.6-.3 5.4-.5 8.3-1-.7 3-1 5.7-1 8.6 0 1.3 0 2.5.2 3.7l-1.8 1c-2 1-3.8 1.8-5.2 3-1.4 1-2.5 2.4-3 4v4.8c4 4.6 9.7 6.5 16 6.7" fill="#010101"/><path d="M240.6 124.7c1-1 2.4-1.5 3.7-2 1.4-.5 2.8-.8 4.3-.8l.2 2c0 5-.3 9.6-1.3 13.8H246c-1.7 0-3.5-.2-5.3-.5-2-.4-3.8-1-5.6-1.5-4.4-1.4-8.6-3.5-12.4-6-1.8-1.4-3.5-2.8-5-4.4.5 2.6.7 5.2.7 7.8v2.5c-4.4 5.6-9 11.5-9.3 18.7-5.2-3.2-8.8-8-8.8-14.6 0-7.7 3.6-12 3.6-18 0-3-.6-5.6-2-8 4-.7 11.6-4.2 19.8-4.2 10.2 0 18 6.8 19 15" fill="#6F4170"/><g transform="matrix(-1 0 0 1 7.448 118.018)"><mask id="f" fill="#fff"><use xlink:href="#e"/></mask><path d="M.2 0L2 4.5c0 .5.3 1 .4 1.6.5 2.2.7 4.3 1 6.4.7 12-3.5 27.5-3 34.2C.5 50 2.7 51 4.6 51c.6 0 1-.2 1.6-.4h.3C6.6 37.4 6.6 24 6 11 5.8 8.3 5 6.2 4 4 3 2.6 1.8 1 .2 0" fill="#6478DD" mask="url(#f)"/></g><path d="M81.5 27.8h5c-2 0-4.3 1-5.7 2.7-1.5 1.7-2.2 4-2 6l6 45c.2 2 1 3.6 2.4 4.8l-3 1.4c-2.4-1-4.2-3.4-4.6-6.2l-5.8-45c-.3-2 .4-4.3 1.8-6 1.5-1.7 3.7-2.7 6-2.7M25 180.4h-6.4c-1.2-4.5-3.6-8.6-3.6-13 0-2 .4-4 1.3-5.8 1.3-3 3.3-5.6 3.3-8.6 0-6-6.6-12.2-6.6-25v-2l.7-3.4c0-.3 0-.6.2-1 0-.5.4-1 .6-1.7 1 1 1.6 2.4 2.3 3.8-.3.6-.3 1.2-.4 2-.7 7.7 2.4 15.2 5.2 22.3.8 2.6 2 5.2.8 7.7-.7 1.8-1.7 3.3-2.5 5-.6 1.5-1 3-1 4.4 0 6.4 4.3 9.5 6 15.4" fill="#BDC6FA"/><path d="M26.8 141.2c3 2 6.2 4 6.2 7.5v1c-.2 1-.5 1.7-1 2.4-2.3 4-6 6.7-8.5 10.3.7-4.6 5.4-8 5.4-13v-1.5h-.2c-.2-2.2-1-4.4-2-6.5z" fill="#F7F7F7"/><path d="M169.7 92c3 3.3 6.6 6 11.2 7.7-4.3 2.8-8.3 6.3-11.8 10.2-1.2 1.2-2.2 2.5-3.2 3.8L162.2 95c2.7-.6 5.2-1.6 7.5-3" fill="#6F4170"/><path d="M18.6 180.4H13l-2.7-5.3c-.8-1.6-1.3-3.3-1.3-5 0-4.2 1.8-7.2 3.6-9.8 1.7-2.6 3.4-4.7 3.4-7v-.8c0-1-.5-2-1-2.7-2-3.6-4.8-7-7.6-7h-.6c-.6-3-1-6.5-1-10.5 0-6.2 1-11 2.4-14.6 1.2-.4 2.5-.4 3.8.3 1 .3 2 1 2.6 2l-.7 1.7c-.2.3-.3.6-.3 1-.3 1-.5 2.2-.6 3.3v2c0 12.8 6.6 19 6.6 25 0 3-2 5.5-3.3 8.6-1 2-1.3 3.8-1.3 5.8 0 4.4 2.4 8.5 3.6 13" fill="#F7F7F7"/><path d="M222.6 129.7c-1.2 2-2.8 4-4.4 6v-2.5c0-2.6 0-5.2-.6-7.8 1.5 1.6 3.2 3 5 4.3M200.4 30.4l-3-2.7c1.2-4.4 3-8.6 6-12h20.8l.2.3c8.2 9 18 15.6 18 31.4 0 10.8-4.5 20.5-7.3 28-9.2-2-17.4-8-22.5-14.2 6-3.3 11.2-8 11.2-15 0-6-4.7-10.7-10-10.7-2.5 0-5 1.3-7 3.4-.6-1.2-1.3-2.2-2-3.2-1.3-2-2.7-3.7-4.3-5.4" fill="#010101"/><path d="M183.3 35c0 1.6-.4 3-1 4.2-2 .5-4.2.7-6 .7H175l6.5-10.3c1.2 1.5 1.8 3.5 1.8 5.4" fill="#FFBF40"/><path d="M100.6 151c5.6 10.7 15 20.2 29 26.3 0 1 0 2-.2 3H107c0-2.6-.3-5-.6-7.4l-1-6.6c-1-3.8-1.8-7-2.7-9.6l-2-5.3v-.5z" fill="#010101"/><path d="M30.5 172.3c4.4 1.6 10 2.6 17 2.6 5 0 9.3-.6 13-1.3 4-1 7.4-2 10.2-3 3.8-1.4 7.6-3 11.4-3.8 3.3 2 7 4 12 4 4.2 0 8-1.8 11.3-4.6.4 2 .8 4 1 6.5-1-.3-2-.4-3.2-.4-3.4.2-7 2.5-6.7 5.5 0 .8.2 1.7.6 2.4h-4.5c.3-.6.5-1.2.5-1.8.2-2.3-1-5-5.4-5.3-8.3-.5-27.3 4.5-42.2 3.5-2.7-.2-5.3-.5-7.8-1-2.5-.6-5-1.4-7-2.7v-.7z" fill="#BDC6FA"/><g transform="matrix(-1 0 0 1 97.31 180.2)"><mask id="h" fill="#fff"><use xlink:href="#g"/></mask><path d="M.4.2h4.4H.4z" fill="#F7F7F7" mask="url(#h)"/></g><path d="M86 134c1 4 1.4 8 1.4 12.2 0 2.6 0 5-.5 7.6h-1.5c-1 0-2-.2-3.3-.8l-4-2 .2-5.5c0-4.6-.6-9.2-1.7-13.7 1.5.5 3 .8 4.6 1.2l4.7 1" fill="#F7F7F7"/><g transform="matrix(-1 0 0 1 216.367 .1)"><mask id="j" fill="#fff"><use xlink:href="#i"/></mask><path d="M.4 3.3c2.8 1 4.7 2.8 6 4.4C7.8 7.3 9 7 10 7c3.5 0 6.5 2.8 6.5 6.5 0 .8 0 1.5-.4 2h11.5c-.8-2.2-2.4-6-5-9.2-3-3.3-7-6-13-6-3.6 0-6.6 1-9 3" fill="#FFBF40" mask="url(#j)"/></g><path d="M194 6.4c-2.8 3.2-4.3 7-5 9-4.5-.6-8.5-2.7-9-6.8-.5-3.8 2-6.3 5-6.7 2.7-.4 5.5 2.4 9 4.4" fill="#6F4170"/><path d="M186 30.2c1.8.6 3.2 1.6 3.2 3.2 0 3-3.3 5-7 5.8.7-1.2 1-2.6 1-4 0-2-.5-4-1.7-5.5v-.2h.3c1 0 2.8.2 4.3.7" fill="#F7F7F7"/><path d="M165.7 58c.7-1.8 1.4-3.6 2.3-5.4l1.5-3 4.2-7.5 1.4-2h1.3c1.8 0 4-.3 6-.8 3.6-.8 7-2.7 7-5.8 0-1.6-1.5-2.6-3.2-3.2 2.7-1.3 5.5-3.4 5.5-6 0-2-2-3.5-4.5-4.2.4-1 1-1.8 1.3-2.7l.5-1.6h14.8c-3 3.4-5 7.6-6 12l3 2.7c1.5 1.7 3 3.5 4.3 5.4l2 3c1.8-2 4.4-3.3 7-3.3 5.2 0 10 4.6 10 10.7 0 7-5.3 11.7-11.3 15 5 6.3 13.3 12 22.6 14.3 0 .7-.2 1.4-.3 2-.5 2-.8 4-.8 6 0 3.8.8 7.6 2.5 11l.6 1c.5 1 1 1.6 1.6 2.4l1.2 1.6.6 1C235 94 225.6 89 216 88.5c-10.2-.4-23.5 3.2-35 11-4.7-1.6-8.4-4.3-11.3-7.7-4.3-5.4-6.6-12.2-6.6-20 0-4.8 1-9.4 2.7-14" fill="#FF7F73"/></g></svg>